HIERARCHY
ROOT Hips
{
	OFFSET -0.001795 -0.223333 0.028219
	CHANNELS 6 Xposition Yposition Zposition Zrotation Yrotation Xrotation 
	JOINT LeftUpLeg
	{
		OFFSET 0.069520 -0.091406 -0.006815
		CHANNELS 3 Zrotation Yrotation Xrotation
		JOINT LeftLeg
		{
			OFFSET 0.034277 -0.375199 -0.004496
			CHANNELS 3 Zrotation Yrotation Xrotation
			JOINT LeftFoot
			{
				OFFSET -0.013596 -0.397961 -0.043693
				CHANNELS 3 Zrotation Yrotation Xrotation
				JOINT LeftToe
				{
					OFFSET 0.026358 -0.055791 0.119288
					CHANNELS 3 Zrotation Yrotation Xrotation
					End Site
					{
						OFFSET 0.000000 0.000000 0.000000
					}
				}
			}
		}
	}
	JOINT RightUpLeg
	{
		OFFSET -0.067670 -0.090522 -0.004320
		CHANNELS 3 Zrotation Yrotation Xrotation
		JOINT RightLeg
		{
			OFFSET -0.038290 -0.382569 -0.008850
			CHANNELS 3 Zrotation Yrotation Xrotation
			JOINT RightFoot
			{
				OFFSET 0.015774 -0.398415 -0.042312
				CHANNELS 3 Zrotation Yrotation Xrotation
				JOINT RightToe
				{
					OFFSET -0.025372 -0.048144 0.123348
					CHANNELS 3 Zrotation Yrotation Xrotation
					End Site
					{
						OFFSET 0.000000 0.000000 0.000000
					}
				}
			}
		}
	}
	JOINT Spine
	{
		OFFSET -0.002533 0.108963 -0.026696
		CHANNELS 3 Zrotation Yrotation Xrotation
		JOINT Spine1
		{
			OFFSET 0.005487 0.135180 0.001092
			CHANNELS 3 Zrotation Yrotation Xrotation
			JOINT Spine2
			{
				OFFSET 0.001457 0.052922 0.025425
				CHANNELS 3 Zrotation Yrotation Xrotation
				JOINT Neck
				{
					OFFSET -0.002778 0.213870 -0.042857
					CHANNELS 3 Zrotation Yrotation Xrotation
					JOINT Head
					{
						OFFSET 0.005152 0.064970 0.051349
						CHANNELS 3 Zrotation Yrotation Xrotation
						End Site
						{
							OFFSET 0.000000 0.000000 0.000000
						}
					}
				}
				JOINT LeftShoulder
				{
					OFFSET 0.078845 0.121749 -0.034090
					CHANNELS 3 Zrotation Yrotation Xrotation
					JOINT LeftArm
					{
						OFFSET 0.090977 0.030469 -0.008868
						CHANNELS 3 Zrotation Yrotation Xrotation
						JOINT LeftForeArm
						{
							OFFSET 0.259612 -0.012772 -0.027456
							CHANNELS 3 Zrotation Yrotation Xrotation
							JOINT LeftHand
							{
								OFFSET 0.249234 0.008986 -0.001171
								CHANNELS 3 Zrotation Yrotation Xrotation
								End Site
								{
									OFFSET 0.000000 0.000000 0.000000
								}
							}
						}
					}
				}
				JOINT RightShoulder
				{
					OFFSET -0.081759 0.118833 -0.038615
					CHANNELS 3 Zrotation Yrotation Xrotation
					JOINT RightArm
					{
						OFFSET -0.096012 0.032551 -0.009143
						CHANNELS 3 Zrotation Yrotation Xrotation
						JOINT RightForeArm
						{
							OFFSET -0.253742 -0.013329 -0.021401
							CHANNELS 3 Zrotation Yrotation Xrotation
							JOINT RightHand
							{
								OFFSET -0.255298 0.007772 -0.005559
								CHANNELS 3 Zrotation Yrotation Xrotation
								End Site
								{
									OFFSET 0.000000 0.000000 0.000000
								}
							}
						}
					}
				}
			}
		}
	}
}
MOTION
Frames: 10
Frame Time: 0.050000
-0.005320 0.945699 -0.020574 -4.149865 13.191697 23.431813 6.568735 -0.706717 -2.831221 5.012366 0.256340 -9.969818 6.726177 17.600778 22.524967 0.000000 0.000000 0.000000 1.745017 2.109145 -24.442909 -0.970462 -0.155630 -5.406424 6.459931 8.191971 15.001104 0.000000 0.000000 0.000000 11.489515 -0.477481 -5.851334 5.110000 -1.636089 -6.789893 -9.234218 -5.998977 -5.472487 9.506261 -4.129872 -13.671785 0.000000 0.000000 0.000000 2.168126 -26.831515 9.207775 0.610719 -65.346239 -4.139559 23.277699 -18.098543 -2.891512 0.000000 0.000000 0.000000 11.384198 5.096284 1.533100 51.065424 40.172975 14.349143 1.686292 55.038262 3.311320 0.000000 0.000000 0.000000 
-0.005786 0.945907 -0.021480 -4.131888 13.104350 23.450813 6.340211 -0.693646 -3.026281 5.687416 0.278201 -10.355741 6.813668 18.057824 25.968535 0.000000 0.000000 0.000000 1.595175 2.100351 -24.628938 -1.015196 -0.023118 -3.001126 5.974892 9.380800 10.562297 0.000000 0.000000 0.000000 11.738687 -0.477331 -5.987246 4.574331 -1.462818 -6.468699 -8.793183 -5.052664 -5.604573 9.843930 -4.409116 -13.039574 0.000000 0.000000 0.000000 1.858440 -26.279147 8.991242 -0.299947 -65.777439 -3.778335 25.903941 -19.124798 -3.533019 0.000000 0.000000 0.000000 11.369342 5.281254 1.745689 50.345776 40.006229 14.042510 1.508326 53.729262 3.272430 0.000000 0.000000 0.000000 
-0.006223 0.945589 -0.022142 -3.776658 13.281606 23.678756 6.101703 -0.689269 -3.315862 5.738509 0.290150 -10.551559 6.606096 17.907558 26.420720 0.000000 0.000000 0.000000 1.174936 2.036800 -24.912271 -0.970740 0.053370 -1.333569 5.327117 9.577427 7.542124 0.000000 0.000000 0.000000 11.827413 -0.482549 -6.123050 4.545906 -1.524006 -5.685068 -9.372388 -3.890438 -6.139510 10.414741 -4.762930 -12.481117 0.000000 0.000000 0.000000 0.910267 -25.901398 8.845323 -2.654623 -64.715416 -2.539631 29.750273 -21.220532 -4.748166 0.000000 0.000000 0.000000 12.187548 4.793972 1.733377 49.575809 39.208785 13.471988 1.872953 53.396718 3.679390 0.000000 0.000000 0.000000 
-0.006375 0.944962 -0.022570 -3.448641 13.193600 23.872383 5.473448 -0.645152 -3.406563 6.340453 0.297061 -10.654817 6.291371 17.576766 26.411062 0.000000 0.000000 0.000000 1.039567 2.037248 -25.356346 -1.066579 0.123891 0.018164 4.642686 9.050965 5.609951 0.000000 0.000000 0.000000 12.107095 -0.483054 -6.323729 4.220808 -1.430553 -5.327831 -9.336382 -2.839033 -6.338623 10.468401 -4.877167 -11.892288 0.000000 0.000000 0.000000 -0.498641 -25.079128 8.577532 -6.989549 -63.666288 -0.174044 33.879835 -23.050804 -6.155204 0.000000 0.000000 0.000000 12.204352 4.587793 1.800952 49.322780 37.641319 12.666883 2.346110 54.028366 4.166723 0.000000 0.000000 0.000000 
-0.006313 0.944547 -0.022887 -3.031790 13.006485 23.698727 4.852020 -0.588821 -3.286368 6.307947 0.321965 -11.043660 7.151622 18.632646 27.928881 0.000000 0.000000 0.000000 0.634829 1.972867 -25.267763 -1.169965 0.149612 0.332702 4.588919 9.118526 5.225268 0.000000 0.000000 0.000000 12.105173 -0.484477 -6.224198 4.111584 -1.438832 -4.790941 -9.650601 -2.240148 -6.501747 10.617183 -4.901041 -12.052786 0.000000 0.000000 0.000000 -1.514956 -24.348096 8.307927 -10.555282 -62.001915 1.685874 36.701505 -25.063941 -7.486780 0.000000 0.000000 0.000000 12.411524 3.875379 1.557523 49.762659 35.814887 11.948394 2.604754 56.184024 4.675823 0.000000 0.000000 0.000000 
-0.006221 0.944071 -0.023361 -2.558531 12.509158 23.766401 4.275420 -0.543479 -3.275895 6.398474 0.328358 -11.104387 6.937955 18.410398 28.518471 0.000000 0.000000 0.000000 0.107908 1.911980 -25.298743 -1.256401 0.159570 0.342225 4.674941 9.412702 4.997034 0.000000 0.000000 0.000000 12.059511 -0.492463 -6.090253 3.769452 -1.270419 -5.155355 -9.391302 -2.007588 -5.953130 10.678622 -4.889767 -12.418142 0.000000 0.000000 0.000000 -3.311035 -23.720900 8.188291 -14.389410 -60.617975 3.670795 38.007420 -26.946076 -8.439760 0.000000 0.000000 0.000000 12.475526 3.364623 1.294895 50.007659 34.401529 11.291403 2.261797 58.318201 4.744260 0.000000 0.000000 0.000000 
-0.006379 0.943392 -0.024131 -2.236858 11.973993 23.790109 3.832283 -0.500307 -3.101460 6.278911 0.358722 -11.529377 7.328436 18.816193 29.330634 0.000000 0.000000 0.000000 -0.118704 1.898195 -25.201128 -1.573220 0.183840 0.090274 4.810917 9.789650 4.831919 0.000000 0.000000 0.000000 11.988050 -0.446374 -6.354692 4.317586 -1.551051 -4.506721 -9.750777 -2.070958 -5.962089 11.205263 -5.133103 -12.810668 0.000000 0.000000 0.000000 -4.242740 -23.202463 8.051845 -17.170150 -59.573347 5.047720 38.800245 -27.757727 -8.941683 0.000000 0.000000 0.000000 11.877443 3.221465 1.180448 50.647219 33.664661 11.157906 -0.266044 60.586497 3.490870 0.000000 0.000000 0.000000 
-0.006822 0.943030 -0.025176 -2.123839 11.501276 23.533728 3.613475 -0.472527 -2.953169 6.273366 0.347245 -11.327468 7.499431 18.957055 29.602972 0.000000 0.000000 0.000000 -0.178002 1.915639 -25.273722 -1.737544 0.224705 0.558527 4.917915 10.154705 4.571875 0.000000 0.000000 0.000000 11.913701 -0.463806 -6.009267 4.645044 -1.665688 -4.710596 -9.397482 -2.864747 -5.643473 10.961501 -5.064129 -12.779591 0.000000 0.000000 0.000000 -5.385886 -23.218994 8.284580 -18.884650 -58.476299 5.898564 38.729239 -28.156217 -8.956128 0.000000 0.000000 0.000000 11.370430 3.369660 1.079232 50.819215 33.152823 10.916340 -1.770326 62.692126 2.492233 0.000000 0.000000 0.000000 
-0.007404 0.942389 -0.026493 -1.887453 11.209835 23.687307 3.341049 -0.452136 -2.935959 6.192875 0.350896 -11.358441 7.390254 18.769531 28.891636 0.000000 0.000000 0.000000 -0.319276 1.916395 -25.508554 -1.978025 0.252528 0.565772 4.966195 10.348905 4.409858 0.000000 0.000000 0.000000 11.916667 -0.493527 -5.771592 4.933355 -1.776489 -4.769236 -9.354898 -3.542233 -5.030251 10.906020 -5.013480 -13.178479 0.000000 0.000000 0.000000 -5.622434 -23.577803 8.589382 -19.273681 -59.004721 6.230804 38.549145 -28.140811 -8.804134 0.000000 0.000000 0.000000 10.876570 3.424368 0.993876 50.741405 33.137285 10.810041 -5.228486 64.499545 0.279086 0.000000 0.000000 0.000000 
-0.007810 0.941692 -0.027850 -1.640548 10.900868 23.993747 3.339601 -0.443785 -2.784298 6.218550 0.354369 -11.377356 5.757476 16.820792 27.096305 0.000000 0.000000 0.000000 -0.650033 1.872402 -25.449368 -1.935805 0.203889 -0.263047 5.089673 10.541175 4.558696 0.000000 0.000000 0.000000 11.965345 -0.574643 -5.188674 5.305677 -1.865994 -5.366294 -9.289731 -4.170355 -4.342680 10.453081 -4.618826 -14.133341 0.000000 0.000000 0.000000 -5.512072 -24.162724 8.968335 -18.991074 -59.882832 6.271924 38.591628 -28.815106 -8.931346 0.000000 0.000000 0.000000 10.040013 3.773589 1.074715 50.148709 33.872278 10.908248 -9.350183 65.298557 -2.451720 0.000000 0.000000 0.000000 
